<?xml version="1.0" standalone="no"?>
<!DOCTYPE svg PUBLIC "-//W3C//DTD SVG 1.1//EN" "http://www.w3.org/Graphics/SVG/1.1/DTD/svg11.dtd" >
<!--
2015-4-19: Created.
-->
<svg xmlns="http://www.w3.org/2000/svg">
<metadata>
Created by FontForge 20120731 at Sun Apr 19 19:21:03 2015
 By Ivana Setiawan
Created by Ivana Setiawan with FontForge 2.0 (http://fontforge.sf.net)
</metadata>
<defs>
<font id="funda" horiz-adv-x="512" >
  <font-face 
    font-family="funda"
    font-weight="500"
    font-stretch="normal"
    units-per-em="512"
    panose-1="2 0 6 3 0 0 0 0 0 0"
    ascent="448"
    descent="-64"
    bbox="-32 -64.0144 512 448"
    underline-thickness="25.6"
    underline-position="-51.2"
    unicode-range="U+0020-F313"
  />
    <missing-glyph />
    <glyph glyph-name="space" unicode=" " horiz-adv-x="200" 
 />
    <glyph glyph-name="uniF308" unicode="&#xf308;" 
d="M377.592 416c74.1924 0 134.408 -60.2236 134.408 -134.416c0 -146.112 -157.912 -191.424 -255.992 -339.712c-103.76 149.216 -256.008 188.792 -256.008 339.712c0 74.2002 60.208 134.416 134.4 134.416c53.8154 0 100.136 -43.7842 121.607 -89.5039
c21.4561 45.7275 67.7686 89.5039 121.584 89.5039z" />
    <glyph glyph-name="uniF2EB" unicode="&#xf2eb;" 
d="M426.592 448l-170.547 -149.995l-170.817 149.995l-85.2275 -75.0371l170.637 -149.995c47.1777 -41.29 123.458 -41.29 170.727 0l170.637 149.995l-85.4082 75.0371z" />
    <glyph glyph-name="uniF2EE" unicode="&#xf2ee;" 
d="M85.4082 192l170.547 149.995l170.817 -149.995l85.2275 75.0371l-170.637 149.995c-47.1777 41.29 -123.458 41.29 -170.727 0l-170.637 -149.995l85.4082 -75.0371z" />
    <glyph glyph-name="uniF2F1" unicode="&#xf2f1;" 
d="M510.361 238.387v0h1.63867v-41.2285h-68.915v-70.4385h-39.3857v70.4385h-67.2764v1.52344h-0.422852v40.0635h67.6992v71.7959h39.3857v-71.7959h67.2764v-0.358398zM219.892 279.13v0c0.920898 8.98535 1.39453 16.5498 1.38184 22.6553
c0 26.5225 -6.45117 53.248 -19.3535 80.2051c-6.04199 12.9277 -14.0029 23.4502 -23.8848 31.5518c-10.0859 7.66797 -21.6699 11.7256 -34.7773 12.1602c-17.3311 -0.43457 -31.7568 -7.76953 -43.2383 -22.0156c-9.70312 -14.8994 -14.3359 -31.5518 -13.9141 -49.959
c0 -24.3193 6.77148 -49.6377 20.3135 -75.9287c6.55371 -12.2627 15.0146 -22.6816 25.3828 -31.2197c10.3682 -8.55078 22.2207 -12.8125 35.5459 -12.8125c16.8447 0.665039 30.873 7.01465 42.0986 19.0723c5.41406 8.53711 8.89648 17.3047 10.4453 26.291z
M240.652 81.2676v0c-11.1992 12.0312 -28.71 26.8027 -52.5566 44.3008c-4.08301 0.43457 -8.85742 0.652344 -14.3613 0.652344c-3.25098 0.435547 -11.6094 0 -25.0498 -1.31836c-13.2354 -1.9707 -26.7773 -5.13281 -40.627 -9.51074
c-3.26367 -1.31836 -7.84668 -3.28906 -13.7471 -5.91309c-5.90137 -2.8418 -11.917 -6.88672 -18.0225 -12.1348c-5.91406 -5.46582 -10.9053 -12.249 -14.9766 -20.3389c-4.68457 -8.52441 -7.02637 -18.8037 -7.02637 -30.835
c0 -23.6162 10.1885 -43.085 30.5537 -58.3936c19.3535 -15.3096 45.8232 -23.1816 79.4365 -23.6162c30.1436 0.43457 53.1582 7.43652 69.043 20.9922c15.4756 13.3369 23.2197 30.5146 23.2197 51.5068c0 17.0498 -5.2998 31.9355 -15.8857 44.6084zM310.784 448v0
l-39.5137 -24.2305h-39.4502c4.01953 -2.62402 8.53809 -6.45117 13.5557 -11.4814c4.8125 -5.24805 9.53613 -11.6992 14.1572 -19.3535c4.41602 -7.21973 8.33203 -15.7441 11.75 -25.5869c2.81641 -9.84375 4.22363 -21.3252 4.22363 -34.4453
c-0.383789 -24.0508 -5.43945 -43.3027 -15.1553 -57.7275c-4.77441 -7.00195 -9.81738 -13.4531 -15.1543 -19.3545c-5.91406 -5.90039 -12.1992 -11.916 -18.8672 -18.0352c-3.81445 -4.15918 -7.33496 -8.85742 -10.5732 -14.1055
c-3.81445 -5.46484 -5.72168 -11.8018 -5.72168 -19.0205c0 -7.00195 1.94531 -12.7871 5.8623 -17.3828c3.31543 -4.37695 6.54102 -8.2041 9.67676 -11.4814l21.6963 -18.6875c13.4912 -11.5967 25.3184 -24.3711 35.4814 -38.375
c9.58691 -14.2207 14.5791 -32.8057 14.9629 -55.7695c0 -32.5762 -13.6826 -61.4395 -41.0488 -86.5918c-28.3906 -26.0225 -69.3506 -39.4746 -122.867 -40.3457c-44.8008 0.435547 -78.2598 10.4707 -100.353 30.1182c-22.2979 18.3428 -33.459 40.2695 -33.459 65.8057
c0 12.4414 3.62207 26.291 10.8799 41.5742c7.04004 15.2832 19.7891 28.71 38.2334 40.2686c20.7236 12.4414 42.4834 20.7363 65.2803 24.8828c22.5918 3.49512 41.3438 5.45312 56.2686 5.88867c-4.60742 6.37402 -8.7168 13.1963 -12.3262 20.4541
c-4.21094 7.02734 -6.31055 15.501 -6.31055 25.3955c0 5.92578 0.806641 10.8799 2.40625 14.835c1.39551 4.17285 2.70117 8.0127 3.9043 11.5332c-7.27051 -0.883789 -14.1182 -1.31934 -20.5566 -1.31934c-34.0479 0.435547 -60.0068 11.6992 -77.8623 33.7793
c-18.6885 20.5439 -28.0322 44.4932 -28.0322 71.8213c0 33.0234 13.2354 62.9629 39.7188 89.8691c18.1885 15.7432 37.0811 26.0215 56.6904 30.835c19.4053 4.14746 37.5938 6.2334 54.5664 6.2334h127.937z" />
    <glyph glyph-name="uniF300" unicode="&#xf300;" 
d="M192 416c17.5996 0 32 -14.4004 32 -32v-160c0 -17.5996 -14.4004 -32 -32 -32h-160c-17.5996 0 -32 14.4004 -32 32v160c0 17.5996 14.4004 32 32 32h160zM192 288v32h-160v-32h160zM448 416c17.5996 0 32 -14.4004 32 -32v-416c0 -17.5996 -14.4004 -32 -32 -32h-160
c-17.5996 0 -32 14.4004 -32 32v416c0 17.5996 14.4004 32 32 32h160zM448 128v32h-160v-32h160zM448 224v32h-160v-32h160zM192 160c17.5996 0 32 -14.4004 32 -32v-160c0 -17.5996 -14.4004 -32 -32 -32h-160c-17.5996 0 -32 14.4004 -32 32v160
c0 17.5996 14.4004 32 32 32h160zM192 32v32h-64v64h-32v-64h-64v-32h64v-64h32v64h64z" />
    <glyph glyph-name="uniF30F" unicode="&#xf30f;" 
d="M128 128c0 80.1602 64 160 192 160v96l192 -128l-192 -128v96c-162.584 0 -192 -96 -192 -96zM352 64v27.6484l64 42.6631v-134.312h-416v320h221.24c-29.7764 -10.584 -56.0723 -26.3203 -78.0566 -46.9121c-5.79199 -5.42383 -11.1992 -11.1279 -16.248 -17.0879
h-62.9355v-192h288z" />
    <glyph glyph-name="uniF2F3" unicode="&#xf2f3;" 
d="M109.619 289.28v-340.48h-109.619v340.48h109.619zM123.315 377.997c0 -31.8086 -23.7959 -57.2549 -62.0166 -57.2422h-0.704102c-36.7998 0 -60.5947 25.4463 -60.5947 57.2422c0 32.4736 24.5117 57.2031 62.0156 57.2031s60.5957 -24.7295 61.2998 -57.2031z
M512 140.211v-189.913h-109.619v177.19c0 44.5049 -15.8594 74.8799 -55.5391 74.8799c-30.2852 0 -48.3203 -20.4678 -56.2432 -40.2432c-2.89258 -7.07812 -3.60938 -16.96 -3.60938 -26.8545v-184.96h-109.633s1.44629 300.108 0 331.188h109.633v-46.9121
c14.5527 22.5537 40.6016 54.6943 98.8027 54.6943c72.1279 0 126.208 -47.3477 126.208 -149.069z" />
    <glyph glyph-name="uniF2FF" unicode="&#xf2ff;" 
d="M99.5557 391.111c7.82227 0 14.2217 -6.40039 14.2217 -14.2227v-312.889c0 -7.82227 -6.39941 -14.2227 -14.2217 -14.2227h-85.333c-7.82227 0 -14.2227 6.40039 -14.2227 14.2227v312.889c0 7.82227 6.40039 14.2227 14.2227 14.2227h85.333zM85.333 305.777v28.4453
h-56.8887v-28.4453h56.8887zM241.777 391.111c7.82227 0 14.2227 -6.40039 14.2227 -14.2227v-312.889c0 -7.82227 -6.40039 -14.2227 -14.2227 -14.2227h-85.333c-7.82227 0 -14.2217 6.40039 -14.2217 14.2227v312.889c0 7.82227 6.39941 14.2227 14.2217 14.2227h85.333z
M227.556 305.777v28.4453h-56.8887v-28.4453h56.8887zM340.039 369.124h0.00683594c6.9834 3.51953 15.5811 0.682617 19.1006 -6.30078l127.993 -254.023c3.51953 -6.9834 0.682617 -15.5801 -6.30078 -19.1006l-76.21 -38.3994
c-6.98242 -3.52051 -15.5801 -0.682617 -19.0996 6.2998l-127.993 254.023c-3.52051 6.9834 -0.682617 15.5801 6.30078 19.1006zM412.444 64c0 -7.85742 -6.36426 -14.2227 -14.2217 -14.2227c-7.8584 0 -14.2227 6.36523 -14.2227 14.2227
s6.36426 14.2227 14.2227 14.2227c7.85742 0 14.2217 -6.36523 14.2217 -14.2227z" />
    <glyph glyph-name="uniF2EC" unicode="&#xf2ec;" 
d="M384 362.586l-75.0332 85.4141l-149.991 -170.637c-41.292 -47.2705 -41.292 -123.546 0 -170.727l149.991 -170.637l75.0332 85.2227l-149.99 170.815l149.99 170.548z" />
    <glyph glyph-name="uniF309" unicode="&#xf309;" 
d="M483.556 391.111c15.6445 0 28.4443 -12.7998 28.4443 -28.4443v-341.334c0 -15.6445 -12.7998 -28.4443 -28.4443 -28.4443h-398.223c-15.6445 0 -28.4443 12.7998 -28.4443 28.4443v28.4443h-28.4443c-15.6445 0 -28.4443 12.8008 -28.4443 28.4453v341.333
c0 15.6445 12.7998 28.4443 28.4443 28.4443h398.223c15.6445 0 28.4443 -12.7998 28.4443 -28.4443v-28.4443h28.4443zM56.8887 362.667v0c0 15.6445 12.7998 28.4443 28.4443 28.4443h341.334v28.3945c-0.0146484 0.0136719 -0.0361328 0.0351562 -0.0498047 0.0498047
h-398.123c-0.0136719 -0.0146484 -0.0351562 -0.0283203 -0.0498047 -0.0498047v-341.233c0.0146484 -0.0146484 0.0283203 -0.0361328 0.0498047 -0.0498047h28.3945v284.444zM483.556 21.3828v341.234c-0.0146484 0.0136719 -0.0361328 0.0351562 -0.0498047 0.0498047
h-398.123c-0.0136719 -0.0146484 -0.0351562 -0.0361328 -0.0498047 -0.0498047v-341.234c0.0146484 -0.0136719 0.0361328 -0.0351562 0.0498047 -0.0498047h398.123c0.0136719 0.0146484 0.0351562 0.0361328 0.0498047 0.0498047zM426.667 291.556
c0 -23.5664 -19.1006 -42.667 -42.667 -42.667s-42.667 19.1006 -42.667 42.667s19.1006 42.667 42.667 42.667s42.667 -19.1006 42.667 -42.667zM455.111 49.7773h-341.334v56.8896l99.5557 170.666l113.778 -142.222h28.4443l99.5557 85.333v-170.667z" />
    <glyph glyph-name="uniF2EF" unicode="&#xf2ef;" 
d="M512 409.268l-226.33 -217.28l226.33 -217.255l-29.6836 -28.4922l-226.316 217.267l-226.316 -217.267l-29.6836 28.4922l226.316 217.255l-226.316 217.28l29.6836 28.4922l226.316 -217.279l226.316 217.279z" />
    <glyph glyph-name="uniF307" unicode="&#xf307;" 
d="M288 320h224v-352h-512v416h224zM256 16l112 112h-80v128h-64v-128h-80z" />
    <glyph glyph-name="uniF301" unicode="&#xf301;" 
d="M160 256h64v-64h-64v64zM256 256h64v-64h-64v64zM352 256h64v-64h-64v64zM64 64h64v-64h-64v64zM160 64h64v-64h-64v64zM256 64h64v-64h-64v64zM160 160h64v-64h-64v64zM256 160h64v-64h-64v64zM352 160h64v-64h-64v64zM64 160h64v-64h-64v64zM416 448h64v-512h-480v512
h64v-32h64v32h224v-32h64v32zM448 -32v352h-416v-352h416z" />
    <glyph glyph-name="uniF306" unicode="&#xf306;" 
d="M0 384h512v-384h-512v384zM96 32v64h-64v-64h64zM96 160v64h-64v-64h64zM96 288v64h-64v-64h64zM384 32v320h-256v-320h256zM480 32v64h-64v-64h64zM480 160v64h-64v-64h64zM480 288v64h-64v-64h64zM192 288l128 -96l-128 -96v192z" />
    <glyph glyph-name="uniF2F2" unicode="&#xf2f2;" 
d="M65.7412 442.97h380.544c36.1592 0 65.7148 -28.9922 65.7148 -64.4355v-373.081c0 -35.4307 -29.5557 -64.3975 -65.7148 -64.3975h-380.544c-36.1602 0 -65.7412 28.9668 -65.7412 64.3975v373.068c0 35.4434 29.5811 64.4482 65.7412 64.4482v0zM372.992 387.213
c-12.6982 0 -23.0527 -10.1885 -23.0527 -22.6309v-54.0664c0 -12.4424 10.3545 -22.6182 23.0527 -22.6182h57.8682c12.6729 0 23.04 10.1758 23.04 22.6182v54.0664c0 12.4424 -10.3809 22.6309 -23.04 22.6309h-57.8682v0zM454.118 230.694h-45.043
c4.27539 -13.6699 6.5791 -28.1084 6.5791 -43.0977c0 -83.4688 -71.2705 -151.155 -159.168 -151.155c-87.8721 0 -159.155 67.6865 -159.155 151.155c0 15.002 2.33008 29.4277 6.5791 43.0977h-46.9883v-212.058c0 -10.9824 9.13867 -19.917 20.3262 -19.917h356.531
c11.2002 0 20.3262 8.93457 20.3262 19.917v212.058h0.0126953zM256.486 290.752c-56.7676 0 -102.81 -43.7246 -102.81 -97.6895c0 -53.9268 46.0547 -97.6768 102.81 -97.6768c56.7939 0 102.835 43.75 102.835 97.6768c0 53.9648 -46.041 97.6895 -102.835 97.6895v0z
" />
    <glyph glyph-name="uniF303" unicode="&#xf303;" 
d="M329.376 73.376l-105.376 105.376v141.256h64v-114.744l86.624 -86.624zM256 448c141.384 0 256 -114.616 256 -256s-114.616 -256 -256 -256s-256 114.616 -256 256s114.616 256 256 256zM256 0c106.04 0 192 85.96 192 192s-85.96 192 -192 192s-192 -85.96 -192 -192
s85.96 -192 192 -192z" />
    <glyph glyph-name="uniF2FE" unicode="&#xf2fe;" 
d="M128 384h320v-448l-160 160l-160 -160v448zM384 448v-32h-288v-384l-32 -32v448h320z" />
    <glyph glyph-name="uniF2F6" unicode="&#xf2f6;" 
d="M0 394.105v53.8945h512v-53.8945h-512zM0 232.421v53.8945h512v-53.8945h-512zM0 70.7373v53.8945h512v-53.8945h-512z" />
    <glyph glyph-name="uniF302" unicode="&#xf302;" 
d="M152 144c0 57.4404 46.5596 104 104 104s104 -46.5596 104 -104s-46.5596 -104 -104 -104s-104 46.5596 -104 104zM480 320c17.5996 0 32 -14.4004 32 -32v-288c0 -17.5996 -14.4004 -32 -32 -32h-448c-17.5996 0 -32 14.4004 -32 32v288c0 17.5996 14.4004 32 32 32h112
c8 32 16 64 48 64h128c32 0 40 -32 48 -64h112zM256 2c78.4238 0 142 63.5762 142 142s-63.5762 142 -142 142s-142 -63.5762 -142 -142s63.5762 -142 142 -142zM480 224v32h-64v-32h64z" />
    <glyph glyph-name="uniF2F4" unicode="&#xf2f4;" 
d="M422.887 320.563v0c0.43457 -1.37012 8.26855 -23.667 8.26855 -30.042v-24.1152c0 -58.7002 -51.6611 -118.323 -83.75 -177.484c-3.16211 -5.91406 -10.0742 -12.2881 -13.6836 -18.6494c-5.41406 -9.5625 -11.7119 -19.5713 -17.127 -29.5938
c-19.8779 -34.1377 -40.1533 -69.6318 -60.4922 -104.679c-32.999 53.6963 -66.3037 107.418 -98.3936 162.022c-29.8369 50.957 -69.7734 105.126 -76.1094 156.096c-0.447266 4.09668 -0.754883 12.2881 -0.754883 13.1973v21.8496
c11.3027 106.957 95.9365 158.835 172.787 158.835c57.4082 0 128.512 -28.2109 161.05 -106.957c2.71387 -6.37402 6.40039 -13.6445 8.20508 -20.4795zM255.04 210.88v0c36.1602 0 66.0859 29.1201 66.0732 65.5234c0 36.416 -27.9678 65.5488 -64.1279 65.5488
c-29.376 0 -63.1426 -18.2148 -63.1426 -58.2529v-14.1055c0 -0.921875 -0.140625 -10.9316 1.67676 -15.9365c12.1992 -31.3984 36.9287 -42.7773 59.5205 -42.7773z" />
    <glyph glyph-name="uniF2F5" unicode="&#xf2f5;" 
d="M325.608 263.324l186.392 184.676v-326.502zM0 448l186.388 -184.655l-186.388 -141.847v326.502zM256 194.362l44.4961 44.0801l211.504 -139.533h-512l211.499 139.533zM496.64 448l-240.64 -197.632l-240.64 197.632h481.279z" />
    <glyph glyph-name="uniF304" unicode="&#xf304;" 
d="M421.008 153.256v-0.0078125c2.42383 -2.37598 4.67188 -5.85645 5.03223 -8.66406c1.20801 -9.47168 0.303711 -18.7197 -4.16016 -25.4404c-2.27148 -3.40723 -5.99219 -5.92773 -10.3994 -7.0957c-2.85645 -0.751953 -6.37695 -1.14355 -10.4648 -1.14355
c-23 0 -59.4395 11.584 -89.0713 28.2715c-38.8799 -5.81543 -83.2402 -16.3594 -122.208 -29.0479c-33.752 -58.8955 -58.248 -85.1836 -79.3525 -85.1836c-3.93555 0 -7.77539 0.927734 -11.4238 2.75195l-8.40039 4.23145
c-5.27148 3.0166 -6.04785 9.52051 -5.00781 14.6084c3.25586 15.9443 22.8887 36.0234 52.5205 53.7119c3.49609 2.1123 18.3838 9.98438 19.0156 10.3203l8.68848 4.5918c8.41602 14.3916 17.6953 31.3916 27.9277 51.4082l1.26367 2.47949
c9.7207 19.0479 20.7441 40.6406 29.5361 62.0801l3.14453 7.63965c-12.2803 46.9209 -19.0566 83.1523 -12.4883 107.368c2.16797 7.7207 10.3916 12.8887 20.4961 12.8887l5.45605 -0.167969c9.06348 0.399414 14.8398 -6.80078 17.7842 -13.6006l0.943359 -2.41602
c0.759766 -2.21582 1 -3.04004 1.40039 -5.89551c2.86328 -20.8086 -7.96777 -82.3359 -7.96777 -82.3359c-0.512695 -2.29688 -1.07227 -4.54395 -1.7207 -7.10449c10.0078 -27.4082 26.0566 -52.3359 45.2881 -70.2959
c7.15234 -6.67969 16.2559 -12.2324 25.0957 -17.3281c19.7363 2.75977 38.4961 4.13574 54.0889 3.95996c23.0234 -0.303711 38.1592 -3.86426 44.9834 -10.584zM105.824 40.9756l-0.0078125 -0.0078125c10.3838 4.69629 26.1514 19.6719 49.7031 57.2324
c-3.19141 -3.03223 -6.67969 -6.2959 -8.0957 -7.44824c-22.5195 -18.4561 -37.752 -39.2559 -41.5996 -49.7764zM239.216 348.16v-0.0078125v0c-3.1123 0 -2.83203 -24.2803 -2.83203 -24.2803c0 -12.6963 1.86426 -32.1201 5.71191 -44.4482
c4.64844 8.32812 8.40039 19.5762 8.08008 35.6084c-0.319336 16.0322 -4.17578 33.1279 -10.96 33.1279zM199.424 129.256v0.0078125v0c25.9521 9.97656 55.4326 18.1846 89.5361 24.9287c-2.32812 1.77539 -4.54395 3.55957 -6.63965 5.32715
c-16.7764 14.1924 -31.04 31.9121 -42.4961 52.7529c-5.75977 -14.8965 -13.4883 -33.0166 -25.7363 -56.1768c-5.02344 -9.46387 -9.93555 -18.3838 -14.6641 -26.8398zM414.448 131.176v0c2.08008 1.2959 1.91992 7.56836 -10.1924 10.6641
s-15.7842 3.04004 -28.1758 3.04004c-6.76855 0 -14.3203 -0.311523 -22.5518 -0.919922c21.4238 -9.18359 36.7119 -14.832 49.0635 -14.832c3.83203 0 9.77637 0.751953 11.8564 2.04785zM458.904 333.464v0c18.9121 -25.792 21.0957 -38.2959 21.0957 -45.4639v-312
c0 -22.0557 -17.9443 -40 -40 -40h-368c-22.0557 0 -40 17.9443 -40 40v432c0 22.0557 17.9443 40 40 40h248c7.16797 0 19.6797 -2.18359 45.4639 -21.0957c15.1445 -11.1123 32.8398 -26.5928 49.8477 -43.5928c17.0088 -17 32.4883 -34.7031 43.5928 -49.8477z
M392.688 360.688v0c-15.3525 15.3516 -29.2002 27.3994 -40.6885 36.2871v-76.9756h76.9756c-8.8877 11.4883 -20.9355 25.3359 -36.2871 40.6885zM448 -24v312h-112c-8.83984 0 -16 7.16016 -16 16v112h-248c-4.33594 0 -8 -3.66406 -8 -8v-432c0 -4.33594 3.66406 -8 8 -8
h368c4.33594 0 8 3.66406 8 8z" />
    <glyph glyph-name="uniF2FB" unicode="&#xf2fb;" 
d="M512 352.448c-18.8418 -8.43555 -39.0908 -14.1445 -60.3389 -16.7041c21.6826 13.1328 38.3486 33.9326 46.1816 58.7139c-20.2871 -12.1602 -42.7773 -20.9922 -66.7129 -25.7539c-19.1621 20.6338 -46.4512 33.5234 -76.6592 33.5234
c-58.0098 0 -105.05 -47.5264 -105.05 -106.163c0 -8.30762 0.93457 -16.4102 2.72656 -24.1797c-87.2959 4.42871 -164.698 46.6816 -216.513 110.912c-9.03613 -15.6934 -14.2334 -33.9199 -14.2334 -53.3633c0 -36.8252 18.5479 -69.3252 46.7334 -88.3584
c-17.2168 0.550781 -33.4209 5.3252 -47.5654 13.2861c-0.0126953 -0.447266 -0.0126953 -0.882812 -0.0126953 -1.34375c0 -51.4307 36.1982 -94.3359 84.25 -104.077c-8.80664 -2.41895 -18.0996 -3.72461 -27.6738 -3.72461
c-6.77148 0 -13.3506 0.666016 -19.7637 1.89453c13.376 -42.1631 52.1602 -72.8574 98.125 -73.7148c-35.9424 -28.4678 -81.2412 -45.4277 -130.457 -45.4277c-8.47363 0 -16.832 0.499023 -25.0498 1.47266c46.4893 -30.1191 101.696 -47.6807 161.011 -47.6807
c193.203 0 298.867 161.741 298.867 302.004c0 4.60742 -0.101562 9.17676 -0.293945 13.7344c20.5312 14.9756 38.3359 33.6768 52.4287 54.9502z" />
    <glyph glyph-name="uniF30E" unicode="&#xf30e;" 
d="M432 448c26.4004 0 48 -21.5996 48 -48v-416c0 -26.4004 -21.5996 -48 -48 -48h-384c-26.4004 0 -48 21.5996 -48 48v416c0 26.4004 21.5996 48 48 48h384zM416 0v384h-352v-384h352zM128 160h224v-32h-224v32zM128 96h224v-32h-224v32zM160 304
c0 26.5117 21.4883 48 48 48s48 -21.4883 48 -48s-21.4883 -48 -48 -48s-48 21.4883 -48 48zM240 256c26.4004 0 48 -14.4004 48 -32v-32h-160v32c0 17.5996 21.5996 32 48 32h64z" />
    <glyph glyph-name="uniF30B" unicode="&#xf30b;" horiz-adv-x="511" 
d="M160.008 128l32 64l224 224l32 -32l-224 -224zM112.656 14.4482l136.384 49.5439l38.96 64l192 192v-96l-192 -192l-320 -96l96 320l192 192h96l-192 -192l-64 -38.9521l-49.5439 -136.392c33.3682 -15.8164 50.3838 -32.8408 66.2002 -66.2002z" />
    <glyph glyph-name="uniF2F8" unicode="&#xf2f8;" 
d="M400.343 213.185l-353.503 219.004c-25.7568 16.9033 -46.8398 4.4668 -46.8398 -27.6318v-425.124c0 -32.082 21.083 -44.5186 46.8398 -27.6309l353.503 219.003s12.5605 8.83594 12.5605 21.1904c0 12.3535 -12.5605 21.1895 -12.5605 21.1895v0z" />
    <glyph glyph-name="uniF30D" unicode="&#xf30d;" 
d="M128 416h256v-64h-256v64zM480 320c17.5996 0 32 -14.4004 32 -32v-160c0 -17.5996 -14.4004 -32 -32 -32h-96v-128h-256v128h-96c-17.5996 0 -32 14.4004 -32 32v160c0 17.5996 14.4004 32 32 32h448zM64 224c17.6719 0 32 14.3281 32 32s-14.3281 32 -32 32
s-32 -14.3281 -32 -32s14.3281 -32 32 -32zM352 0v160h-192v-160h192z" />
    <glyph glyph-name="uniF310" unicode="&#xf310;" 
d="M512 249.472l-128 -124.768l30.2158 -176.176l-158.216 83.1758l-158.216 -83.1758l30.2158 176.176l-128 124.768l176.888 25.7041l79.1123 160.288l79.1123 -160.288z" />
    <glyph glyph-name="uniF311" unicode="&#xf311;" 
d="M492.8 448c10.5605 0 19.2002 -8.63965 19.2002 -19.2002v-153.6c0 -10.5605 -6.10547 -25.3057 -13.5742 -32.7744l-190.445 -190.445c-7.46875 -7.46875 -19.6865 -7.46875 -27.1553 0l-164.845 164.845c-7.46875 7.46875 -7.46875 19.6865 0 27.1553l190.445 190.445
c7.46191 7.46191 22.2139 13.5742 32.7744 13.5742h153.6zM396.8 294.4c21.21 0 38.4004 17.1904 38.4004 38.3994c0 21.21 -17.1904 38.4004 -38.4004 38.4004c-21.209 0 -38.3994 -17.1904 -38.3994 -38.4004c0 -21.209 17.1904 -38.3994 38.3994 -38.3994zM51.2002 230.4
l0.00585938 0.00585938l166.4 -166.399l-12.0254 -12.0264c-7.46875 -7.46875 -19.6865 -7.46875 -27.1553 0l-164.845 164.845c-7.46875 7.46875 -7.46875 19.6865 0 27.1553l190.444 190.445c7.46289 7.46191 22.2148 13.5742 32.7744 13.5742h32z" />
    <glyph glyph-name="uniF305" unicode="&#xf305;" 
d="M432 448c26.4004 0 48 -21.5996 48 -48v-416c0 -26.4004 -21.5996 -48 -48 -48h-384c-26.4004 0 -48 21.5996 -48 48v416c0 26.4004 21.5996 48 48 48h384zM416 0v384h-352v-384h352zM128 224h224v-32h-224v32zM128 160h224v-32h-224v32zM128 96h224v-32h-224v32z
M128 288h224v-32h-224v32z" />
    <glyph glyph-name="uniF30C" unicode="&#xf30c;" 
d="M352 128c32 32 128 -64 128 -96s-96 -96 -96 -96c-64 0 -193.752 65.752 -256 128s-128 192 -128 256c0 0 64 96 96 96s128 -96 96 -128s-64 -32 -64 -64s32 -64 64 -96s64 -64 96 -64s32 32 64 64z" />
    <glyph glyph-name="uniF2F0" unicode="&#xf2f0;" 
d="M193.779 -64v240.23h-64.9092v86.4893h64.9092v73.8945c0 58.0479 38.3359 111.36 126.669 111.36c35.7627 0 62.2207 -3.35352 62.2207 -3.35352l-2.08691 -80.7686s-26.9688 0.243164 -56.4092 0.243164c-31.8594 0 -36.9668 -14.3613 -36.9668 -38.208
c0 -18.8545 0 40.1797 0 -63.168h95.9111l-4.17285 -86.4893h-91.7256v-240.23h-93.4395z" />
    <glyph glyph-name="uniF30A" unicode="&#xf30a;" 
d="M501.064 290.88v-0.0078125c12.3916 -12.4004 14.584 -34.4805 4.85547 -49.0645l-92.1436 -138.216c-9.7207 -14.5918 -30.5127 -20.1113 -46.1924 -12.2715l-70.4883 35.248c-2.83203 1.41602 -5.89551 3.12012 -9.0957 5.02344v-35.5918h-64v-64h-64v-64h-64v-32h-96
l16 112l178.264 178.264c-1.37598 2.38477 -2.61523 4.68066 -3.69531 6.83203l-35.2402 70.4883c-7.83984 15.6797 -2.3125 36.4639 12.2715 46.1924l138.217 92.1436c14.584 9.72852 36.6641 7.54395 49.0635 -4.85547l50.5518 -50.5527
c12.3926 -12.3994 32.6807 -32.6797 45.0801 -45.0801zM75.3115 20.6885l155.784 155.783l-22.624 22.624l-155.783 -155.784zM458.512 236.12v0.0078125c6.22461 6.21582 6.22461 16.4004 0 22.624l-135.768 135.768c-6.22461 6.22461 -16.4004 6.22461 -22.624 0
l-22.624 -22.6318c-6.22363 -6.21582 -6.22363 -16.3994 0 -22.624l135.768 -135.768c6.22461 -6.22363 16.4004 -6.22363 22.624 0z" />
    <glyph glyph-name="uniF313" unicode="&#xf313;" 
d="M240 448c97.1836 0 176 -78.7842 176 -176c0 -64 -58.9443 -133.088 -80.4961 -193.248c-32.0635 -89.4082 -27.5039 -142.752 -95.5039 -142.752c-67.0078 0 -63.4561 53.5996 -95.5039 143.12c-21.4883 60.0322 -80.4961 128.384 -80.4961 192.88
c0 97.2158 78.7842 176 176 176zM281.472 13.1836c1.77637 5.69629 3.64844 11.9365 5.74414 19.1201c1.3125 4.44824 2.81641 9.4082 4.22461 14.1279l-99.0088 -12.3672c0.0322266 -0.160156 0.0966797 -0.336914 0.144531 -0.496094
c3.69629 -12.5127 6.73535 -22.0967 9.56738 -30.2881zM187.776 49.4717l108.783 13.584c1.69629 5.44043 3.66406 11.2002 5.63281 16.9443h-124.257c3.64844 -10.752 6.92871 -20.8965 9.84082 -30.5283zM240 -32c18.8799 0 26.0322 2.03223 35.8564 28.4961
l-67.8086 -8.49609c8.28809 -18.1279 15.7441 -20 31.9521 -20zM314.752 112c7.9043 17.1836 17.4082 34.4316 26.752 51.2803c20.8965 37.584 42.4961 76.4316 42.4961 108.72c0 79.4082 -64.5918 144 -144 144s-144 -64.5918 -144 -144
c0 -32.5283 21.5684 -71.168 42.4482 -108.528c9.43945 -16.9121 19.0078 -34.1914 26.9756 -51.4717h149.328zM240 368c4.40039 0 8 -3.58398 8 -8s-3.58398 -8 -8 -8c-44.1123 0 -80 -35.8877 -80 -80c0 -4.41602 -3.58398 -8 -8 -8s-8 3.58398 -8 8
c0 52.9443 43.0557 96 96 96z" />
    <glyph glyph-name="uniF2FD" unicode="&#xf2fd;" 
d="M96 448h384v-512h-384v512zM288 319.832v0c-35.248 0 -63.832 -28.584 -63.832 -63.832s28.5762 -63.832 63.832 -63.832s63.832 28.584 63.832 63.832s-28.5762 63.832 -63.832 63.832zM384 64v32c0 35.3516 -28.6484 64 -64 64h-64v0c-35.3438 0 -64 -28.6484 -64 -64
v-32h192zM32 416h48v-96h-48v96zM32 288h48v-96h-48v96zM32 160h48v-96h-48v96zM32 32h48v-96h-48v96z" />
    <glyph glyph-name="uniF2FA" unicode="&#xf2fa;" 
d="M490.752 -2.6416l-42.667 -40.96l-119.573 114.79c-33.2588 -20.5615 -72.7676 -32.625 -115.264 -32.625c-117.76 0 -213.248 91.6484 -213.248 204.719c0 113.049 95.4883 204.718 213.248 204.718c117.781 0 213.248 -91.6689 213.248 -204.718
c0 -51.3232 -19.7979 -98.1201 -52.2881 -134.042l116.544 -111.882v0zM213.61 386.15c-82.3887 0 -149.184 -64.1025 -149.184 -143.217c0 -79.0938 66.7949 -143.237 149.184 -143.237c82.4111 0 149.206 64.1436 149.206 143.237
c0 79.1143 -66.7949 143.217 -149.206 143.217v0z" />
    <glyph glyph-name="uniF312" unicode="&#xf312;" 
d="M496.128 12.3037l-0.0078125 -0.015625c19.624 -17.6641 21.2803 -46.5117 3.67969 -64.1123c-17.5996 -17.5996 -46.4482 -15.9434 -64.1113 3.68066l-103.145 121.279c-11.2803 12.5361 -16.4639 25.9443 -15.96 36.7764
c-33.5361 -28.624 -77.04 -45.9199 -124.592 -45.9199c-106.04 0 -192 85.96 -192 192s85.96 192 192 192s192 -85.96 192 -192c0 -47.5439 -17.2959 -91.0479 -45.9199 -124.584c10.832 0.503906 24.2393 -4.68066 36.7754 -15.96zM192 128c70.6963 0 128 57.3037 128 128
s-57.3037 128 -128 128s-128 -57.3037 -128 -128s57.3115 -128 128 -128zM224 352v-64h64v-64h-64v-64h-64v64h-64v64h64v64h64z" />
    <glyph glyph-name="uniF2F7" unicode="&#xf2f7;" 
d="M51.2002 264.281c0 83.5459 72.8066 183.719 217.19 183.719c116.058 0 192.409 -81.2412 192.422 -168.486c0 -115.366 -66.2783 -201.549 -163.98 -201.549c-32.8193 0 -63.6797 17.165 -74.2402 36.6592c0 0 -17.6514 -67.75 -21.376 -80.832
c-13.1582 -46.208 -51.8652 -92.4541 -54.8604 -96.2432c-2.09961 -2.63672 -6.7334 -1.81738 -7.21973 1.67676c-0.832031 5.8877 -10.7002 64.1924 0.90918 111.757c5.82422 23.8848 39.0908 160.256 39.0908 160.256s-9.68945 18.7773 -9.68945 46.541
c0 43.584 26.1123 76.1211 58.6113 76.1211c27.6348 0 40.9854 -20.0703 40.9854 -44.1465c0 -26.8936 -17.6895 -67.0977 -26.8281 -104.358c-7.62891 -31.207 16.166 -56.6533 47.9609 -56.6533c57.5615 0 96.3457 71.5654 96.3457 156.365
c0 64.4482 -44.8379 112.704 -126.451 112.704c-92.1729 0 -149.632 -66.5352 -149.632 -140.852c0 -25.626 7.82031 -43.7119 20.0576 -57.6768c5.60645 -6.42578 6.40039 -9.01074 4.36426 -16.3838c-1.48438 -5.42773 -4.7998 -18.4453 -6.20801 -23.6035
c-2.02148 -7.44922 -8.25586 -10.1123 -15.2188 -7.36035c-42.4443 16.7686 -62.2334 61.7607 -62.2334 112.346z" />
    <glyph glyph-name="uniF2FC" unicode="&#xf2fc;" 
d="M203.136 121.178v0l138.317 76.4414l-138.343 76.9668zM506.893 301.158v0s5.10742 -44.1855 5.10742 -88.3584v-41.4209c0 -44.1855 -5.12012 -88.3584 -5.12012 -88.3584s-5.00488 -37.6318 -20.3516 -54.1953c-19.4688 -21.7471 -41.293 -21.8623 -51.3027 -23.1289
c-71.6416 -5.53027 -179.226 -5.69629 -179.226 -5.69629s-133.12 1.29297 -174.067 5.49121c-11.4043 2.27832 -36.9795 1.58691 -56.4609 23.334c-15.3594 16.5762 -20.3516 54.1953 -20.3516 54.1953s-5.12012 44.1729 -5.12012 88.3584v41.4209
c0 44.1729 5.12012 88.3584 5.12012 88.3584s5.00488 37.6318 20.3516 54.1953c19.4814 21.7471 41.293 21.8623 51.3027 23.1299c71.6543 5.5166 179.123 5.5166 179.123 5.5166h0.217773s107.469 0 179.123 -5.5166c10.0098 -1.28027 31.834 -1.38281 51.3027 -23.1299
c15.3467 -16.5762 20.3516 -54.1953 20.3516 -54.1953z" />
    <glyph glyph-name="uniF2F9" unicode="&#xf2f9;" 
d="M512 208v-32h-240.008v-240h-31.9688v240h-240.023v32h240.023v240h31.9688v-240h240.008z" />
    <glyph glyph-name="uniF2ED" unicode="&#xf2ed;" 
d="M0 362.592l149.995 -170.547l-149.995 -170.817l75.0371 -85.2275l149.995 170.637c41.29 47.1777 41.29 123.458 0 170.727l-149.995 170.637l-75.0371 -85.4082z" />
  </font>
</defs>
</svg>
