<?xml version="1.0" encoding="UTF-8" standalone="no"?>
<svg width="131px" height="41px" viewBox="0 0 131 41" version="1.1" xmlns="http://www.w3.org/2000/svg" xmlns:xlink="http://www.w3.org/1999/xlink" xmlns:sketch="http://www.bohemiancoding.com/sketch/ns">
    <!-- Generator: Sketch 3.2.1 (9977) - http://www.bohemiancoding.com/sketch -->
    <title>Ahrend logo 4</title>
    <desc>Created with Sketch.</desc>
    <defs></defs>
    <g id="Assets" stroke="none" stroke-width="1" fill="none" fill-rule="evenodd" sketch:type="MSPage">
        <g id="AHREND---Menu---Hover-over-mainnav---XL" sketch:type="MSArtboardGroup" transform="translate(-143.000000, -13.000000)" fill="#ED1C24">
            <g id="DEFAULT-NAVIGATION" sketch:type="MSLayerGroup" transform="translate(30.000000, 0.000000)">
                <g id="Ahrend-logo-4" transform="translate(113.000000, 13.000000)" sketch:type="MSShapeGroup">
                    <path d="M85,24.999153 C85,22.7899492 83.2980871,21 81.1991953,21 L69.7981224,21 C67.6992306,21 66,22.7899492 66,24.999153 L66,36.9994353 C66,39.2100508 67.6992306,41 69.7981224,41 L85,41 L85,36.9994353 L69.7981224,36.9994353 L69.7981224,25.0005647 L81.1991953,25.0005647 L81.1991953,32.9974591 L85,32.9974591 L85,24.999153" id="Fill-1"></path>
                    <path d="M104.199464,21 C106.295525,21 108,22.7899492 108,24.999153 L108,41 L104.199464,41 L104.199464,25.0005647 L92.8005364,24.999153 L92.8005364,41 L89,41 L89,21.0014116 L104.199464,21" id="Fill-2"></path>
                    <path d="M19,21.0028231 L19,41 L15.2008046,41 L15.2008046,25.0031054 L3.80187747,25.0031054 L3.80187747,37.0011292 L11.4016093,36.9997177 L11.4016093,41 L3.80053642,41 C1.70045172,41 0,39.2101771 0,36.9997177 L0,25.0016938 C0,22.7926459 1.70045172,21 3.80053642,21 L19,21.0028231" id="Fill-3"></path>
                    <path d="M26.7994635,21.0039084 L38.1991953,21.0039084 C40.2994282,21.0039084 42,22.7935078 42,25.0022799 L42,41 L38.1991953,41 L38.2005365,25.0036912 L26.7994635,25.0036912 L26.7994635,41 L23,41 L23,15 L26.7994635,15.0014114 L26.7994635,21.0039084" id="Fill-4"></path>
                    <path d="M131,15 L127.199464,15 L127.199464,37.0021718 L115.799195,37.0021718 L115.799195,25.0030405 L123.398927,25.0030405 L123.398927,21.002389 L115.799195,21.002389 C113.699111,21.002389 112,22.792377 112,25.0030405 L112,37.0021718 C112,39.2114236 113.699111,41 115.799195,41 L127.202146,41 C129.298207,41 131,39.2114236 131,37.0021718 L131,15" id="Fill-5"></path>
                    <path d="M49,15 L65,15 L65,17 L49,17 L49,15 Z" id="Fill-6"></path>
                    <path d="M59,2.66713731 L57.7496692,4 L56.4980153,2.66713731 L55.2503308,4 L54,2.66713731 L56.4980153,0 L59,2.66713731" id="Fill-7"></path>
                    <path d="M58,6.33451015 L60.3432494,8.99929391 L58,11.6683142 L59.1703836,13 L61.514874,10.3338041 C62.1615016,9.59664607 62.1615016,8.40476611 61.5161152,7.66619594 L59.1716247,5 L58,6.33451015" id="Fill-8"></path>
                    <path d="M55,11.6685492 L52.654996,8.99858807 L55,6.33427462 L53.827498,5 L51.4849755,7.66854924 C50.8385484,8.4041652 50.8385484,9.59724673 51.4837347,10.3356866 L53.827498,13 L55,11.6685492" id="Fill-9"></path>
                    <path d="M49,11.6683142 L46.6567819,8.99929391 L49,6.33451015 L47.8277707,5 L45.485793,7.6690203 C44.8382759,8.40335393 44.8382759,9.59805825 45.4845526,10.3352162 L47.8277707,13 L49,11.6683142" id="Fill-10"></path>
                    <path d="M64,6.33451015 L66.3436725,8.99929391 L64,11.6683142 L65.1724566,13 L67.516129,10.3338041 C68.1612903,9.59664607 68.1612903,8.40476611 67.516129,7.66619594 L65.1724566,5 L64,6.33451015" id="Fill-11"></path>
                    <path d="M52.602413,21 C50.8529599,21 49.5056798,22.2436477 49.0646299,23.933371 L45,41 L48.9319128,41 L52.7203838,25.0019763 L64,25.0019763 L64,21 L52.602413,21" id="Fill-12"></path>
                </g>
            </g>
        </g>
    </g>
</svg>