<?xml version="1.0" encoding="utf-8"?>
<!-- Generator: Adobe Illustrator 17.0.0, SVG Export Plug-In . SVG Version: 6.00 Build 0)  -->
<!DOCTYPE svg PUBLIC "-//W3C//DTD SVG 1.1//EN" "http://www.w3.org/Graphics/SVG/1.1/DTD/svg11.dtd">
<svg version="1.1" id="Layer_1" xmlns="http://www.w3.org/2000/svg" xmlns:xlink="http://www.w3.org/1999/xlink" x="0px" y="0px"
	 width="40px" height="40px" viewBox="0 0 40 40" enable-background="new 0 0 40 40" xml:space="preserve">
<g id="Homepage" sketch:type="MSPage">
	<g id="AHREND---Homepage---1320px" transform="translate(-1277.000000, -3599.000000)" sketch:type="MSArtboardGroup">
		<g id="FOOTER" transform="translate(84.000000, 3366.000000)" sketch:type="MSLayerGroup">
			<g id="socials" transform="translate(1014.000000, 231.000000)" sketch:type="MSShapeGroup">
				<path id="Fill-13" fill="#8E8E8D" d="M218.872,18.376v-0.028h-5.256v-5.609h-3.077v5.609h-5.289v3.13h0.033v0.119h5.256V27.1
					h3.077v-5.503H219v-3.221H218.872L218.872,18.376z M196.179,15.193c-0.121,0.702-0.393,1.387-0.816,2.054
					c-0.877,0.942-1.973,1.438-3.289,1.49c-1.041,0-1.967-0.333-2.777-1.001c-0.81-0.667-1.471-1.481-1.983-2.439
					c-1.058-2.054-1.587-4.032-1.587-5.932c-0.033-1.438,0.329-2.739,1.087-3.903c0.897-1.113,2.024-1.686,3.378-1.72
					c1.024,0.034,1.929,0.351,2.717,0.95c0.772,0.633,1.394,1.455,1.866,2.465c1.008,2.106,1.512,4.194,1.512,6.266
					C196.288,13.9,196.251,14.491,196.179,15.193L196.179,15.193z M197.801,30.651c0.827,0.99,1.241,2.153,1.241,3.485
					c0,1.64-0.605,2.982-1.814,4.024c-1.241,1.059-3.039,1.606-5.394,1.64c-2.626-0.034-4.694-0.649-6.206-1.845
					c-1.591-1.196-2.387-2.717-2.387-4.562c0-0.94,0.183-1.743,0.549-2.409c0.318-0.632,0.708-1.162,1.17-1.589
					c0.477-0.41,0.947-0.726,1.408-0.948c0.461-0.205,0.819-0.359,1.074-0.462c1.082-0.342,2.14-0.589,3.174-0.743
					c1.05-0.103,1.703-0.137,1.957-0.103c0.43,0,0.803,0.017,1.122,0.051C195.558,28.557,196.926,29.711,197.801,30.651
					L197.801,30.651z M203.28,2h-9.995c-1.326,0-2.747,0.163-4.263,0.487c-1.532,0.376-3.008,1.179-4.429,2.409
					c-2.069,2.102-3.103,4.441-3.103,7.021c0,2.135,0.73,4.006,2.19,5.611c1.395,1.725,3.423,2.605,6.083,2.639
					c0.503,0,1.038-0.034,1.606-0.103c-0.094,0.275-0.196,0.575-0.305,0.901c-0.125,0.309-0.188,0.696-0.188,1.159
					c0,0.773,0.164,1.435,0.493,1.984c0.282,0.567,0.603,1.1,0.963,1.598c-1.166,0.034-2.631,0.187-4.396,0.46
					c-1.781,0.324-3.481,0.972-5.1,1.944c-1.441,0.903-2.437,1.952-2.987,3.146c-0.567,1.194-0.85,2.276-0.85,3.248
					c0,1.995,0.872,3.708,2.614,5.141c1.726,1.535,4.34,2.319,7.84,2.353c4.181-0.068,7.381-1.119,9.599-3.152
					c2.138-1.965,3.207-4.22,3.207-6.765c-0.03-1.794-0.42-3.246-1.169-4.357c-0.794-1.094-1.718-2.092-2.772-2.998l-1.695-1.46
					c-0.245-0.256-0.497-0.555-0.756-0.897c-0.306-0.359-0.458-0.811-0.458-1.358c0-0.564,0.149-1.059,0.447-1.486
					c0.253-0.41,0.528-0.777,0.826-1.102c0.521-0.478,1.012-0.948,1.474-1.409c0.417-0.461,0.811-0.965,1.184-1.512
					c0.759-1.127,1.154-2.631,1.184-4.51c0-1.025-0.11-1.922-0.33-2.691c-0.267-0.769-0.573-1.435-0.918-1.999
					c-0.361-0.598-0.73-1.102-1.106-1.512c-0.392-0.393-0.745-0.692-1.059-0.897h3.082L203.28,2L203.28,2z"/>
			</g>
		</g>
	</g>
</g>
</svg>
