<?xml version="1.0" encoding="UTF-8" standalone="no"?>
<svg width="20px" height="20px" viewBox="0 0 20 20" version="1.1" xmlns="http://www.w3.org/2000/svg" xmlns:xlink="http://www.w3.org/1999/xlink" xmlns:sketch="http://www.bohemiancoding.com/sketch/ns">
    <!-- Generator: Sketch 3.2.2 (9983) - http://www.bohemiancoding.com/sketch -->
    <title>Imported Layers 2</title>
    <desc>Created with Sketch.</desc>
    <defs></defs>
    <g id="Homepage" stroke="none" stroke-width="1" fill="none" fill-rule="evenodd" sketch:type="MSPage">
        <g id="AHREND---Homepage---744px" sketch:type="MSArtboardGroup" transform="translate(-755.000000, -24.000000)" fill="#8E8E8D">
            <path d="M774.17,41.6032 L772.503333,43.2032 L767.8325,38.7192 C766.533333,39.5224 764.99,39.9936 763.33,39.9936 C758.73,39.9936 755,36.4136 755,31.9968 C755,27.5808 758.73,24 763.33,24 C767.930833,24 771.66,27.5808 771.66,31.9968 C771.66,34.0016 770.886667,35.8296 769.6175,37.2328 L774.17,41.6032 L774.17,41.6032 Z M763.344167,26.416 C760.125833,26.416 757.516667,28.92 757.516667,32.0104 C757.516667,35.1 760.125833,37.6056 763.344167,37.6056 C766.563333,37.6056 769.1725,35.1 769.1725,32.0104 C769.1725,28.92 766.563333,26.416 763.344167,26.416 L763.344167,26.416 Z" id="Imported-Layers-2" sketch:type="MSShapeGroup"></path>
        </g>
    </g>
</svg>