<?xml version="1.0" encoding="utf-8"?>
<!-- Generator: Adobe Illustrator 17.0.0, SVG Export Plug-In . SVG Version: 6.00 Build 0)  -->
<!DOCTYPE svg PUBLIC "-//W3C//DTD SVG 1.1//EN" "http://www.w3.org/Graphics/SVG/1.1/DTD/svg11.dtd">
<svg version="1.1" id="Layer_1" xmlns="http://www.w3.org/2000/svg" xmlns:xlink="http://www.w3.org/1999/xlink" x="0px" y="0px"
	 width="40px" height="40px" viewBox="0 0 40 40" enable-background="new 0 0 40 40" xml:space="preserve">
<g id="blog-detail" sketch:type="MSPage">
	<g id="detail-project-2" transform="translate(-1209.000000, -3754.000000)" sketch:type="MSArtboardGroup">
		<g id="footer" transform="translate(143.000000, 3514.000000)" sketch:type="MSLayerGroup">
			<g id="contact" transform="translate(990.000000, 0.000000)" sketch:type="MSShapeGroup">
				<g id="socials" transform="translate(1.000000, 236.000000)">
					<path id="Imported-Layers" fill="#8E8E8D" d="M115,11.465c-1.472,0.659-3.054,1.105-4.714,1.305
						c1.694-1.026,2.996-2.651,3.608-4.587c-1.585,0.95-3.342,1.64-5.212,2.012c-1.497-1.612-3.629-2.619-5.989-2.619
						c-4.532,0-8.207,3.713-8.207,8.294c0,0.649,0.073,1.282,0.213,1.889c-6.82-0.346-12.867-3.647-16.915-8.665
						c-0.706,1.226-1.112,2.65-1.112,4.169c0,2.877,1.449,5.416,3.651,6.903c-1.345-0.043-2.611-0.416-3.716-1.038
						c-0.001,0.035-0.001,0.069-0.001,0.105c0,4.018,2.828,7.37,6.582,8.131c-0.688,0.189-1.414,0.291-2.162,0.291
						c-0.529,0-1.043-0.052-1.544-0.148c1.045,3.294,4.075,5.692,7.666,5.759c-2.808,2.224-6.347,3.549-10.192,3.549
						c-0.662,0-1.315-0.039-1.957-0.115c3.632,2.353,7.945,3.725,12.579,3.725c15.094,0,23.349-12.636,23.349-23.594
						c0-0.36-0.008-0.717-0.023-1.073C112.508,14.588,113.899,13.127,115,11.465"/>
				</g>
			</g>
		</g>
	</g>
</g>
<g>
</g>
<g>
</g>
<g>
</g>
<g>
</g>
<g>
</g>
<g>
</g>
</svg>
