<?xml version="1.0" encoding="utf-8"?>
<!-- Generator: Adobe Illustrator 17.0.0, SVG Export Plug-In . SVG Version: 6.00 Build 0)  -->
<!DOCTYPE svg PUBLIC "-//W3C//DTD SVG 1.1//EN" "http://www.w3.org/Graphics/SVG/1.1/DTD/svg11.dtd">
<svg version="1.1" id="Layer_1" xmlns="http://www.w3.org/2000/svg" xmlns:xlink="http://www.w3.org/1999/xlink" x="0px" y="0px"
	 width="40px" height="40px" viewBox="0 0 40 40" enable-background="new 0 0 40 40" xml:space="preserve">
<g id="Homepage" sketch:type="MSPage">
	<g id="AHREND---Homepage---1320px" transform="translate(-1222.000000, -3599.000000)" sketch:type="MSArtboardGroup">
		<g id="FOOTER" transform="translate(84.000000, 3366.000000)" sketch:type="MSLayerGroup">
			<g id="socials" transform="translate(1014.000000, 231.000000)" sketch:type="MSShapeGroup">
				<path id="Imported-Layers" fill="#8E8E8D" d="M129.136,2.393h29.73c2.825,0,5.134,2.265,5.134,5.034v29.147
					c0,2.768-2.309,5.031-5.134,5.031h-29.73c-2.825,0-5.136-2.263-5.136-5.031V7.428C124,4.659,126.311,2.393,129.136,2.393
					L129.136,2.393z M153.14,6.749c-0.992,0-1.801,0.796-1.801,1.768v4.224c0,0.972,0.809,1.767,1.801,1.767h4.521
					c0.99,0,1.8-0.795,1.8-1.767V8.517c0-0.972-0.811-1.768-1.8-1.768H153.14L153.14,6.749z M159.478,18.977h-3.519
					c0.334,1.068,0.514,2.196,0.514,3.367c0,6.521-5.568,11.809-12.435,11.809c-6.865,0-12.434-5.288-12.434-11.809
					c0-1.172,0.182-2.299,0.514-3.367h-3.671v16.567c0,0.858,0.714,1.556,1.588,1.556h27.854c0.875,0,1.588-0.698,1.588-1.556
					V18.977L159.478,18.977z M144.038,14.285c-4.435,0-8.032,3.416-8.032,7.632c0,4.213,3.598,7.631,8.032,7.631
					c4.437,0,8.034-3.418,8.034-7.631C152.072,17.701,148.475,14.285,144.038,14.285L144.038,14.285z"/>
			</g>
		</g>
	</g>
</g>
<g>
</g>
<g>
</g>
<g>
</g>
<g>
</g>
<g>
</g>
<g>
</g>
</svg>
