<?xml version="1.0" encoding="utf-8"?>
<!-- Generator: Adobe Illustrator 17.0.0, SVG Export Plug-In . SVG Version: 6.00 Build 0)  -->
<!DOCTYPE svg PUBLIC "-//W3C//DTD SVG 1.1//EN" "http://www.w3.org/Graphics/SVG/1.1/DTD/svg11.dtd">
<svg version="1.1" id="Layer_1" xmlns="http://www.w3.org/2000/svg" xmlns:xlink="http://www.w3.org/1999/xlink" x="0px" y="0px"
	 width="40px" height="40px" viewBox="0 0 40 40" enable-background="new 0 0 40 40" xml:space="preserve">
<g id="blog-detail" sketch:type="MSPage">
	<g id="detail-project-2" transform="translate(-1169.000000, -3751.000000)" sketch:type="MSArtboardGroup">
		<g id="footer" transform="translate(143.000000, 3514.000000)" sketch:type="MSLayerGroup">
			<g id="contact" transform="translate(990.000000, 0.000000)" sketch:type="MSShapeGroup">
				<g id="socials" transform="translate(1.000000, 236.000000)">
					<path id="Path-8" fill="#8E8E8D" d="M43.564,13.4H35V40h8.564V13.4z M44.634,6.469C44.579,3.932,42.775,2,39.845,2
						S35,3.932,35,6.469c0,2.484,1.859,4.472,4.734,4.472h0.055C42.775,10.942,44.634,8.954,44.634,6.469z M75,25.046
						c0-7.947-4.225-11.646-9.86-11.646c-4.547,0-6.582,2.511-7.719,4.273v-3.665h-8.565c0.113,2.428,0,25.874,0,25.874h8.565
						v-14.45c0-0.773,0.056-1.545,0.282-2.098c0.619-1.545,2.028-3.144,4.394-3.144c3.1,0,4.339,2.373,4.339,5.85v13.843H75
						L75,25.046z"/>
				</g>
			</g>
		</g>
	</g>
</g>
<g>
</g>
<g>
</g>
<g>
</g>
<g>
</g>
<g>
</g>
<g>
</g>
</svg>
