<?xml version="1.0" encoding="utf-8"?>
<!-- Generator: Adobe Illustrator 17.0.0, SVG Export Plug-In . SVG Version: 6.00 Build 0)  -->
<!DOCTYPE svg PUBLIC "-//W3C//DTD SVG 1.1//EN" "http://www.w3.org/Graphics/SVG/1.1/DTD/svg11.dtd">
<svg version="1.1" id="Layer_1" xmlns="http://www.w3.org/2000/svg" xmlns:xlink="http://www.w3.org/1999/xlink" x="0px" y="0px"
	 width="40px" height="40px" viewBox="0 0 40 40" enable-background="new 0 0 40 40" xml:space="preserve">
<g id="Blog" sketch:type="MSPage">
	
		<g id="AHREND---Actueel---Evenementen---1320px" transform="translate(-1068.000000, -1257.000000)" sketch:type="MSArtboardGroup">
		<g id="_x2D_4" transform="translate(1042.000000, 792.000000)" sketch:type="MSLayerGroup">
			<g id="facebook30" transform="translate(26.000000, 465.000000)" sketch:type="MSShapeGroup">
				<path id="Facebook_Places" fill="#010202" d="M33.038,9.956c-0.141-0.534-0.429-1.102-0.641-1.6C29.855,2.204,24.3,0,19.815,0
					C13.811,0,7.199,4.053,6.316,12.409v1.707c0,0.071,0.024,0.711,0.059,1.031c0.495,3.982,3.615,8.214,5.946,12.195
					c2.507,4.266,5.109,8.463,7.687,12.658c1.589-2.738,3.173-5.511,4.726-8.178c0.423-0.783,0.915-1.565,1.338-2.312
					c0.282-0.497,0.822-0.995,1.069-1.457c2.507-4.622,6.543-9.28,6.543-13.866v-1.884C33.684,11.805,33.072,10.063,33.038,9.956
					L33.038,9.956z M19.925,18.525c-1.765,0-3.697-0.889-4.65-3.342c-0.142-0.391-0.131-1.173-0.131-1.245v-1.102
					c0-3.128,2.638-4.551,4.933-4.551c2.825,0,5.01,2.276,5.01,5.121C25.088,16.25,22.75,18.525,19.925,18.525L19.925,18.525z"/>
			</g>
		</g>
	</g>
</g>
<g>
</g>
<g>
</g>
<g>
</g>
<g>
</g>
<g>
</g>
<g>
</g>
</svg>
