<?xml version="1.0" encoding="utf-8"?>
<!-- Generator: Adobe Illustrator 17.0.0, SVG Export Plug-In . SVG Version: 6.00 Build 0)  -->
<!DOCTYPE svg PUBLIC "-//W3C//DTD SVG 1.1//EN" "http://www.w3.org/Graphics/SVG/1.1/DTD/svg11.dtd">
<svg version="1.1" id="Layer_1" xmlns="http://www.w3.org/2000/svg" xmlns:xlink="http://www.w3.org/1999/xlink" x="0px" y="0px"
	 width="40px" height="40px" viewBox="0 0 40 40" enable-background="new 0 0 40 40" xml:space="preserve">
<g id="blog-detail" sketch:type="MSPage">
	<g id="detail-project-2" transform="translate(-1290.000000, -3751.000000)" sketch:type="MSArtboardGroup">
		<g id="footer" transform="translate(143.000000, 3514.000000)" sketch:type="MSLayerGroup">
			<g id="contact" transform="translate(990.000000, 0.000000)" sketch:type="MSShapeGroup">
				<g id="socials" transform="translate(1.000000, 236.000000)">
					<path id="Path-9" fill="#8E8E8D" d="M160,15.353c0,3.952,1.546,7.467,4.862,8.777c0.544,0.215,1.031,0.007,1.189-0.575
						c0.11-0.403,0.369-1.42,0.485-1.844c0.159-0.576,0.097-0.778-0.341-1.28c-0.956-1.091-1.567-2.504-1.567-4.506
						c0-5.806,4.489-11.004,11.69-11.004c6.376,0,9.879,3.77,9.879,8.805c0,6.625-3.03,12.216-7.527,12.216
						c-2.484,0-4.343-1.988-3.747-4.426c0.714-2.911,2.096-6.052,2.096-8.153c0-1.881-1.043-3.449-3.202-3.449
						c-2.539,0-4.579,2.542-4.579,5.947c0,2.169,0.757,3.636,0.757,3.636s-2.599,10.654-3.054,12.52
						c-0.907,3.716-0.136,8.271-0.071,8.731c0.038,0.273,0.4,0.337,0.564,0.131c0.234-0.296,3.258-3.909,4.286-7.519
						c0.291-1.022,1.67-6.315,1.67-6.315c0.825,1.523,3.236,2.864,5.8,2.864c7.633,0,12.811-6.733,12.811-15.746
						C192,7.347,186.035,1,176.968,1C165.688,1,160,8.826,160,15.353z"/>
				</g>
			</g>
		</g>
	</g>
</g>
<g>
</g>
<g>
</g>
<g>
</g>
<g>
</g>
<g>
</g>
<g>
</g>
</svg>
