<?xml version="1.0" encoding="utf-8"?>
<!-- Generator: Adobe Illustrator 17.0.0, SVG Export Plug-In . SVG Version: 6.00 Build 0)  -->
<!DOCTYPE svg PUBLIC "-//W3C//DTD SVG 1.1//EN" "http://www.w3.org/Graphics/SVG/1.1/DTD/svg11.dtd">
<svg version="1.1" id="Layer_1" xmlns="http://www.w3.org/2000/svg" xmlns:xlink="http://www.w3.org/1999/xlink" x="0px" y="0px"
	 width="40px" height="40px" viewBox="0 0 40 40" enable-background="new 0 0 40 40" xml:space="preserve">
<g id="blog-detail" sketch:type="MSPage">
	<g id="detail-project-2" transform="translate(-1249.000000, -3755.000000)" sketch:type="MSArtboardGroup">
		<g id="footer" transform="translate(143.000000, 3514.000000)" sketch:type="MSLayerGroup">
			<g id="contact" transform="translate(990.000000, 0.000000)" sketch:type="MSShapeGroup">
				<g id="socials" transform="translate(1.000000, 236.000000)">
					<path id="Fill-5" fill="#8E8E8D" d="M130.87,30.533l-0.002-11.985l10.808,6.013L130.87,30.533L130.87,30.533z M154.601,16.472
						c0,0-0.391-2.939-1.59-4.234c-1.521-1.699-3.226-1.707-4.008-1.807C143.405,10,135.009,10,135.009,10h-0.017
						c0,0-8.396,0-13.994,0.431c-0.782,0.099-2.486,0.108-4.008,1.807c-1.199,1.294-1.59,4.234-1.59,4.234s-0.4,3.452-0.4,6.903
						v3.236c0,3.452,0.4,6.903,0.4,6.903s0.39,2.939,1.59,4.234c1.522,1.699,3.52,1.645,4.411,1.823C124.6,39.899,135,40,135,40
						s8.405-0.013,14.002-0.445c0.782-0.099,2.487-0.108,4.008-1.807c1.199-1.294,1.59-4.234,1.59-4.234S155,30.063,155,26.611
						v-3.236C155,19.924,154.601,16.472,154.601,16.472L154.601,16.472z"/>
				</g>
			</g>
		</g>
	</g>
</g>
<g>
</g>
<g>
</g>
<g>
</g>
<g>
</g>
<g>
</g>
<g>
</g>
</svg>
